<svg height="40" viewBox="0 0 106 40" width="106" xmlns="http://www.w3.org/2000/svg"><g fill="none" fill-rule="evenodd"><rect fill="#000" height="40" rx="6" width="106"/><path d="m6 0h34v40h-34c-3.3137085 0-6-2.6862915-6-6v-28c0-3.3137085 2.6862915-6 6-6z" fill="#2050e0"/><g fill="#f8d12e" fill-rule="nonzero" transform="translate(6 6)"><path d="m14.0000393 0 .4535515 1.46796068h1.4679778l-1.1875405.90721589.4535516 1.46796068-1.1875404-.90779388-1.187305.90779388.4536301-1.46796068-1.187933-.90721589h1.4679778z"/><path d="m14.0000393 24.1568627.4535515 1.4684005h1.4679778l-1.1875405.9070794.4535516 1.4676574-1.1875404-.9069969-1.187305.9069969.4536301-1.4676574-1.187933-.9070794h1.4679778z"/><path d="m20.0392157 2.19607843.4533809 1.46794404h1.4681877l-1.1877888.90757939.4536949 1.46761383-1.1874747-.90757939-1.1877103.90757939.4536164-1.46761383-1.1874747-.90757939h1.4681877z"/><path d="m24.9217649 18 .4533531 1.468444h1.4680193l-1.1876376.9071575.4539027 1.4675358-1.1876375-.9068272-1.187716.9068272.4536671-1.4675358-1.187716-.9071575h1.4680977z"/><path d="m26.0785491 12.0784314.4533532 1.4678345h1.4680977l-1.1876375.9071379.4535886 1.4681648-1.187402-.9068076-1.1876375.9068076.4539027-1.4681648-1.1879516-.9071379h1.4677837z"/><path d="m1.92184346 12.0784314.45339016 1.4678345h1.46790363l-1.18773459.9071379.45393982 1.4681648-1.18749902-.9068076-1.18781312.9068076.45370425-1.4681648-1.18773459-.9071379h1.46813921z"/><path d="m2.92184346 18 .45339016 1.468444h1.46790363l-1.1874205.9071575.45331164 1.4675358-1.18718493-.9068272-1.18773459.9068272.45362572-1.4675358-1.18773459-.9071575h1.46821773z"/><path d="m24.9217649 6 .4533531 1.46844404h1.4680193l-1.1876376.90715741.4539027 1.4675358-1.1876375-.90682714-1.187716.90682714.4536671-1.4675358-1.187716-.90715741h1.4680977z"/><path d="m3.42184346 6 .45339016 1.46844404h1.46790363l-1.1874205.90715741.45331164 1.4675358-1.18718493-.90682714-1.18773459.90682714.45362572-1.4675358-1.18773459-.90715741h1.46821773z"/><path d="m21.1373727 23.0588235.4533531 1.46774h1.4680977l-1.1879516.9076573.4539028 1.46774-1.187402-.9070795-1.1879516.9070795.4539812-1.46774-1.187716-.9076573h1.4680977z"/><path d="m7.96082358 2.19607843.45331163 1.46794404h1.46821773l-1.18773459.90757939.45393982 1.46761383-1.18773459-.90757939-1.18749903.90757939.45362573-1.46761383-1.18773459-.90757939h1.46790364z"/><path d="m6.86262732 23.0588235.45358866 1.4684951h1.46809775l-1.18763753.9068076.45358865 1.4678346-1.18763753-.90656-1.18740198.90656.45358866-1.4678346-1.18763753-.9068076h1.46778368z"/></g><g fill="#fff"><path d="m47 15.5957447c0 2.8240518 2.1632047 4.5957447 4.8204748 4.5957447 1.6824926 0 2.9777448-.679371 3.9391691-1.7317299v-3.4767808h-4.2997032v1.9049029h2.0430267v.7459759c-.3605342.293062-.9881306.53284-1.6824926.53284-1.4554896 0-2.4836795-1.1189639-2.4836795-2.5709528s1.0281899-2.5709528 2.4836795-2.5709528c.8412463 0 1.5222552.4662349 1.8827893 1.0523589l1.9228487-1.0123959c-.6543027-1.105643-1.8560831-2.0647549-3.805638-2.0647549-2.6572701 0-4.8204748 1.7716929-4.8204748 4.5957447zm10.1083086 4.4358927v-8.8851064h3.7388724c2.8041543 0 4.8204748 1.6784459 4.8204748 4.4358927s-2.0163205 4.4492137-4.8071217 4.4492137zm2.2967359-1.9981499h1.4421365c1.5623145 0 2.4703264-1.1322849 2.4703264-2.4510638 0-1.3720629-.8278932-2.4377428-2.4569733-2.4377428h-1.4554896zm7.4109792 1.9981499v-8.8851064h4.4599407c2.0029674 0 3.0979228 1.3454209 3.0979228 2.9572618 0 1.5985199-1.0949554 2.9172988-3.0979228 2.9172988h-2.1632048v3.0105458zm5.2210683-5.9411656c0-.612766-.4540059-1.0123959-1.0682493-1.0123959h-1.8560831v1.9981498h1.8560831c.6142434 0 1.0682493-.386309 1.0682493-.9857539zm8.3323442 5.9411656-1.495549-3.0105458h-1.1750741v3.0105458h-2.2967359v-8.8851064h4.4599406c1.9762611 0 3.0979229 1.3054579 3.0979229 2.9572618 0 1.5452359-.9480713 2.3711378-1.7759644 2.6641998l1.8160237 3.2636448zm.2537092-5.9544866c0-.612766-.5074184-.9990749-1.1083086-.9990749h-1.8160237v1.9981498h1.8160237c.6008902 0 1.1083086-.386309 1.1083086-.9990749z"/><path d="m23.1428571 19.1363636h-.4285714v-1.3295454c0-1.5474432-1.2178571-2.8068182-2.7142857-2.8068182s-2.7142857 1.259375-2.7142857 2.8068182v1.3295454h-.4285714c-.4732143 0-.8571429.3970171-.8571429.8863637v3.5454545c0 .4893466.3839286.8863637.8571429.8863637h6.2857142c.4732143 0 .8571429-.3970171.8571429-.8863637v-3.5454545c0-.4893466-.3839286-.8863637-.8571429-.8863637zm-1.8571428 0h-2.5714286v-1.3295454c0-.7330966.5767857-1.3295455 1.2857143-1.3295455s1.2857143.5964489 1.2857143 1.3295455z" fill-rule="nonzero"/><text font-family="HelveticaNeue-Bold, Helvetica Neue" font-size="8" font-weight="bold" letter-spacing=".200000003"><tspan x="47" y="31">COMPLIANT</tspan></text></g></g></svg>